inDegrees=no
num_controls=7
num_derivatives=13
num_iterations=104
num_multipliers=7
num_parameters=0
num_slacks=7
num_states=26
objective=0.485548
objective_accelerations=0.025707
objective_balance=0.001496
objective_effort=0.056584
objective_height=0.396143
objective_ligament=0.005618
solver_duration=1139.065431
status=Solve_Succeeded
success=true
DataType=double
version=3
OpenSimVersion=4.5
endheader
time	/jointset/ground_pelvis/pelvis_tilt/value	/jointset/ground_pelvis/pelvis_tx/value	/jointset/ground_pelvis/pelvis_ty/value	/jointset/hip_r/hip_flexion_r/value	/jointset/hip_r/hip_adduction_r/value	/jointset/hip_r/hip_rotation_r/value	/jointset/back/lumbar_extension/value	/jointset/patellofemoral_r/patellar_flexion_r/value	/jointset/knee_r/knee_flexion_r/value	/jointset/knee_r/knee_adduction_r/value	/jointset/knee_r/knee_rotation_r/value	/jointset/ankle_r/ankle_angle_r/value	/jointset/subtalar_r/subtalar_angle_r/value	/jointset/ground_pelvis/pelvis_tilt/speed	/jointset/ground_pelvis/pelvis_tx/speed	/jointset/ground_pelvis/pelvis_ty/speed	/jointset/hip_r/hip_flexion_r/speed	/jointset/hip_r/hip_adduction_r/speed	/jointset/hip_r/hip_rotation_r/speed	/jointset/back/lumbar_extension/speed	/jointset/patellofemoral_r/patellar_flexion_r/speed	/jointset/knee_r/knee_flexion_r/speed	/jointset/knee_r/knee_adduction_r/speed	/jointset/knee_r/knee_rotation_r/speed	/jointset/ankle_r/ankle_angle_r/speed	/jointset/subtalar_r/subtalar_angle_r/speed	/forceset/tau_hip_flexion_r	/forceset/tau_hip_adduction_r	/forceset/tau_hip_rotation_r	/forceset/tau_knee_flexion_r	/forceset/tau_ankle_angle_r	/forceset/tau_subtalar_angle_r	/forceset/tau_lumbar_extension	lambda_cid13_p0	lambda_cid14_p0	lambda_cid14_p1	lambda_cid14_p2	lambda_cid14_p3	lambda_cid14_p4	lambda_cid14_p5	/jointset/ground_pelvis/pelvis_tilt/accel	/jointset/ground_pelvis/pelvis_tx/accel	/jointset/ground_pelvis/pelvis_ty/accel	/jointset/hip_r/hip_flexion_r/accel	/jointset/hip_r/hip_adduction_r/accel	/jointset/hip_r/hip_rotation_r/accel	/jointset/back/lumbar_extension/accel	/jointset/patellofemoral_r/patellar_flexion_r/accel	/jointset/knee_r/knee_flexion_r/accel	/jointset/knee_r/knee_adduction_r/accel	/jointset/knee_r/knee_rotation_r/accel	/jointset/ankle_r/ankle_angle_r/accel	/jointset/subtalar_r/subtalar_angle_r/accel	gamma_cid13_p0	gamma_cid14_p0	gamma_cid14_p1	gamma_cid14_p2	gamma_cid14_p3	gamma_cid14_p4	gamma_cid14_p5
0.5	-0.3282472178142578	-0.01697668463687028	0.8606927150030806	0.8782844933449857	-0.1791784207366499	-0.2182035806779191	-0.6549332805566735	0.4732843958475574	0.473284395847557	-0.03728636053242261	0.1745196480775918	0.004292647425674988	0.09678199842234664	-0.8615645251650652	-0.2990613157892617	-0.2644418101393308	1.769450360654468	0.1379706231318184	0.01723847082193083	-0.709074871372066	0.7228622837210814	0.7228622837210911	-0.5025103747427918	4.478700923418833e-05	-0.0715022860565265	0.1390874583776815	-0.294516722479119	0.01031843015468356	-0.001529515155448627	-0.08588641827563531	0.0434833416321062	0.002322221997288485	0.2938630522827079	-29.30246837360204	-28.82044797014793	0.1194585516411064	-4.345598549315707	-10.94679888749339	-652.9219999540579	60.48063976723022	0.3247181311509073	0.760195548352112	-0.1095778676793275	-1.435138788965274	-0.237783855338959	-0.2691738718136444	1.901103607700499	-0.2700395284943898	-0.2700395284943938	0.4720471094383392	0.004937703281443613	0.7436340560710135	-0.0532079990250998	1.88211728999861e-08	1.464338962122524e-08	-2.610548390163019e-08	-2.526735463963736e-07	3.686618444080562e-08	-1.852501015939979e-07	3.048791243389752e-08
0.51	-0.3368452219240785	-0.01992921290770406	0.8580434448017594	0.895904563559432	-0.1778115317145512	-0.2180436821016542	-0.6619287388447544	0.4804982446056761	0.4804982446056748	-0.0422852103814306	0.1745200010006434	0.003614113332997073	0.0981689345767216	-0.8579190746842583	-0.2914386649145412	-0.2653537764308334	1.754341908045116	0.1353706721953117	0.01477688411330183	-0.6899572610772952	0.7197849427382087	0.7197849427382123	-0.4971365251042726	1.169537727734002e-05	-0.06425487951100409	0.1382444287257821	-0.3034691472233451	0.01105277774911605	-0.001753132943497708	-0.08432136744382868	0.04192650169311214	0.002644690815151088	0.3006062310737649	-29.18741396119995	-29.52773997458881	0.09867640206243672	-4.300035318988673	-10.57029270178451	-656.4866565982609	60.47272360507853	0.4020496362480778	0.7641581481271604	-0.07327359011356442	-1.581960770769736	-0.2766111612716105	-0.2293421832275205	1.926018515411214	-0.3449639588187375	-0.3449639588196415	0.588496725102325	-0.009594887228883672	0.7077531862580656	-0.1081868509709078	-1.031818604584634e-08	-1.785209420573815e-08	6.718457071020329e-08	-1.395385413872315e-07	2.164668754249711e-08	-1.225338154365257e-07	2.209665302938204e-08
0.52	-0.345403253303151	-0.02280534301157161	0.8553868014214776	0.9133668967930157	-0.1764717442915093	-0.2179073376150443	-0.6687312352748781	0.4876776434388353	0.487677643438841	-0.047226633167244	0.1745195905492195	0.00300654515226749	0.09954577315403795	-0.8535699790153496	-0.2837816823960151	-0.265916445931449	1.737902964481782	0.1325503033202005	0.01252765289107236	-0.6704824997806913	0.7159722987299358	0.7159722987299334	-0.4910249621040088	-0.0001078878864648909	-0.05730910366687348	0.1370679429659406	-0.3124215719675648	0.01178712534354881	-0.001976750731507544	-0.08275631661201731	0.04036966175411762	0.002967159633013369	0.3073494098648278	-29.06615551590471	-30.23382799041777	0.07741703531531206	-4.253610215755177	-10.23411886076256	-660.0528058147548	60.50439291169734	0.465447168771346	0.7670618771132116	-0.03971850950192745	-1.701236979761522	-0.2818674430598718	-0.2267027745337413	1.9725338080671	-0.4171001335743942	-0.4171001335743937	0.6195897817872416	-0.01236062307563071	0.683307915792623	-0.1198992206135284	-6.956315803515959e-08	-8.424174118698883e-08	2.58593549757368e-07	8.194655450938016e-08	-8.07728700344198e-09	-1.01226480512302e-08	8.858244626061114e-09
0.53	-0.3539144958870917	-0.0256047613078289	0.8527262658648479	0.9306585822643808	-0.1751603204762453	-0.2177947771037164	-0.6753371042777894	0.494814847362974	0.4948148473629798	-0.05210603588209323	0.174519063916333	0.002467107107529715	0.1009103684010448	-0.8485689089332394	-0.2760977298882656	-0.2661311254974593	1.720220894983466	0.1297118522755554	0.01001396492514267	-0.6506385576595939	0.711338587514686	0.7113385875146856	-0.4847631561036301	-1.303862532743305e-05	-0.05062832038139988	0.1358117674925761	-0.3210169433839251	0.01235626804948397	-0.002145564469717994	-0.08167894091727619	0.03939659902625155	0.003139473647744689	0.3137898298622965	-28.93890856764962	-30.76332341157244	0.009792072239554183	-4.186002372972182	-10.00421140896599	-663.6239154975268	60.53880931120287	0.5338601646802472	0.7696942446511555	-0.003401911286678549	-1.833697018119142	-0.288143534157963	-0.2592817584891153	1.998235885453269	-0.5059712666047863	-0.5059712666044747	0.6434117622024332	0.01809246703384102	0.6529515037611107	-0.1342941484804338	-1.164673341282944e-07	-1.359711398021446e-07	4.109225632206273e-07	2.532156514565116e-07	-3.132180785419895e-08	7.337946695596414e-08	-1.891695938565029e-09
0.54	-0.3623724431228617	-0.02832721361759963	0.8500653716663311	0.9477670460241129	-0.1738779430912242	-0.2177064694622226	-0.6817429515652252	0.5019018212447377	0.5019018212447474	-0.05692003338632889	0.1745190227293228	0.001992974489414041	0.1022612384057615	-0.8429109093811514	-0.2683884850987016	-0.2659881743089137	1.701258622155054	0.126741017271264	0.007677078924551329	-0.6304781566856082	0.7059262902552561	0.7059262902552578	-0.477943919981681	-1.079871117336084e-05	-0.04424801834247111	0.1343228945079099	-0.329612314800281	0.01292541075541804	-0.002314378207911309	-0.08060156522253276	0.03842353629838471	0.003311787662474085	0.3202302498597696	-28.80592929226408	-31.29453338617953	-0.06062341072016952	-4.115105031735248	-9.798046202708148	-667.2335808415695	60.55445217547189	0.5968330627669931	0.7721203334761237	0.03180764140925521	-1.957277645780467	-0.308344234989139	-0.1913423814660763	2.03582557864475	-0.5728173424104372	-0.5728173424104337	0.7310758061013397	-0.03088249247230392	0.6232116664836316	-0.1664387228739009	-1.497178636979975e-07	-1.714806891611952e-07	5.200141679527569e-07	3.689266219063454e-07	-4.739757142517988e-08	1.248970984810037e-07	-9.888438043358612e-09
